<mxfile host="65bd71144e">
    <diagram id="2sqB23X24piITcKmiXVl" name="PÃ¡gina-1">
        <mxGraphModel dx="1729" dy="393" grid="1" gridSize="10" guides="1" tooltips="1" connect="1" arrows="1" fold="1" page="1" pageScale="1" pageWidth="827" pageHeight="1169" math="0" shadow="0">
            <root>
                <mxCell id="0"/>
                <mxCell id="1" parent="0"/>
                <mxCell id="7" value="" style="edgeStyle=none;html=1;" parent="1" source="2" target="3" edge="1">
                    <mxGeometry relative="1" as="geometry"/>
                </mxCell>
                <mxCell id="2" value="REQ" style="rounded=1;whiteSpace=wrap;html=1;strokeColor=#D737F0;" parent="1" vertex="1">
                    <mxGeometry x="-80" y="30" width="120" height="60" as="geometry"/>
                </mxCell>
                <mxCell id="8" value="" style="edgeStyle=none;html=1;" parent="1" source="3" target="4" edge="1">
                    <mxGeometry relative="1" as="geometry"/>
                </mxCell>
                <mxCell id="3" value="INTERCEPTORS" style="rounded=1;whiteSpace=wrap;html=1;strokeColor=#F01F73;" parent="1" vertex="1">
                    <mxGeometry x="90" y="30" width="120" height="60" as="geometry"/>
                </mxCell>
                <mxCell id="12" value="" style="edgeStyle=none;html=1;" parent="1" source="4" target="11" edge="1">
                    <mxGeometry relative="1" as="geometry"/>
                </mxCell>
                <mxCell id="4" value="PIPES" style="rounded=1;whiteSpace=wrap;html=1;strokeColor=#C1F054;" parent="1" vertex="1">
                    <mxGeometry x="260" y="30" width="120" height="60" as="geometry"/>
                </mxCell>
                <mxCell id="5" value="PASSAPORT JWT" style="rounded=1;whiteSpace=wrap;html=1;strokeColor=#2E18F0;" parent="1" vertex="1">
                    <mxGeometry x="520" y="240" width="120" height="60" as="geometry"/>
                </mxCell>
                <mxCell id="41" style="edgeStyle=none;html=1;exitX=1;exitY=0.25;exitDx=0;exitDy=0;entryX=0.75;entryY=0;entryDx=0;entryDy=0;" parent="1" source="6" target="40" edge="1">
                    <mxGeometry relative="1" as="geometry">
                        <Array as="points">
                            <mxPoint x="1050" y="45"/>
                        </Array>
                    </mxGeometry>
                </mxCell>
                <mxCell id="6" value="CONTROLLER" style="rounded=1;whiteSpace=wrap;html=1;shadow=1;strokeColor=#F02618;" parent="1" vertex="1">
                    <mxGeometry x="790" y="30" width="120" height="60" as="geometry"/>
                </mxCell>
                <mxCell id="28" value="" style="edgeStyle=none;html=1;" parent="1" source="11" target="27" edge="1">
                    <mxGeometry relative="1" as="geometry"/>
                </mxCell>
                <mxCell id="36" value="" style="edgeStyle=none;html=1;" parent="1" source="11" target="35" edge="1">
                    <mxGeometry relative="1" as="geometry"/>
                </mxCell>
                <mxCell id="11" value="GUARD" style="rounded=1;whiteSpace=wrap;html=1;strokeColor=#045C12;" parent="1" vertex="1">
                    <mxGeometry x="450" y="30" width="120" height="60" as="geometry"/>
                </mxCell>
                <mxCell id="31" style="edgeStyle=none;html=1;exitX=0;exitY=0.5;exitDx=0;exitDy=0;entryX=1;entryY=0.5;entryDx=0;entryDy=0;" parent="1" source="16" target="20" edge="1">
                    <mxGeometry relative="1" as="geometry">
                        <Array as="points">
                            <mxPoint x="180" y="360"/>
                            <mxPoint x="180" y="400"/>
                        </Array>
                    </mxGeometry>
                </mxCell>
                <mxCell id="16" value="Filter" style="rounded=1;whiteSpace=wrap;html=1;shadow=1;strokeColor=#00CCCC;" parent="1" vertex="1">
                    <mxGeometry x="210" y="330" width="120" height="60" as="geometry"/>
                </mxCell>
                <mxCell id="32" style="edgeStyle=none;html=1;exitX=0;exitY=0.5;exitDx=0;exitDy=0;entryX=1;entryY=0.5;entryDx=0;entryDy=0;" parent="1" source="19" target="20" edge="1">
                    <mxGeometry relative="1" as="geometry">
                        <Array as="points">
                            <mxPoint x="180" y="450"/>
                            <mxPoint x="180" y="400"/>
                        </Array>
                    </mxGeometry>
                </mxCell>
                <mxCell id="19" value="INTERCEPTORS" style="rounded=1;whiteSpace=wrap;html=1;strokeColor=#F01F73;" parent="1" vertex="1">
                    <mxGeometry x="210" y="420" width="120" height="60" as="geometry"/>
                </mxCell>
                <mxCell id="20" value="RESPONSE" style="rounded=1;whiteSpace=wrap;html=1;strokeColor=#D737F0;" parent="1" vertex="1">
                    <mxGeometry x="30" y="370" width="120" height="60" as="geometry"/>
                </mxCell>
                <mxCell id="24" value="Sim" style="edgeStyle=none;html=1;exitX=0.5;exitY=0;exitDx=0;exitDy=0;entryX=1.006;entryY=0.645;entryDx=0;entryDy=0;entryPerimeter=0;" parent="1" source="23" target="16" edge="1">
                    <mxGeometry relative="1" as="geometry"/>
                </mxCell>
                <mxCell id="25" value="Nao" style="edgeStyle=none;html=1;exitX=0.5;exitY=1;exitDx=0;exitDy=0;entryX=1;entryY=0.5;entryDx=0;entryDy=0;" parent="1" source="23" target="19" edge="1">
                    <mxGeometry relative="1" as="geometry">
                        <Array as="points">
                            <mxPoint x="454" y="450"/>
                        </Array>
                    </mxGeometry>
                </mxCell>
                <mxCell id="33" style="edgeStyle=none;html=1;exitX=1;exitY=0.5;exitDx=0;exitDy=0;entryX=0.5;entryY=1;entryDx=0;entryDy=0;" parent="1" source="23" target="6" edge="1">
                    <mxGeometry relative="1" as="geometry">
                        <Array as="points">
                            <mxPoint x="850" y="410"/>
                        </Array>
                    </mxGeometry>
                </mxCell>
                <mxCell id="23" value="Teve erro" style="rhombus;whiteSpace=wrap;html=1;shadow=1;strokeColor=#00CCCC;" parent="1" vertex="1">
                    <mxGeometry x="414" y="370" width="80" height="80" as="geometry"/>
                </mxCell>
                <mxCell id="29" value="Sim" style="edgeStyle=none;html=1;" parent="1" source="27" target="6" edge="1">
                    <mxGeometry relative="1" as="geometry"/>
                </mxCell>
                <mxCell id="30" style="edgeStyle=none;html=1;exitX=0.5;exitY=1;exitDx=0;exitDy=0;entryX=1;entryY=0.25;entryDx=0;entryDy=0;" parent="1" source="27" target="16" edge="1">
                    <mxGeometry relative="1" as="geometry">
                        <mxPoint x="340" y="300" as="targetPoint"/>
                        <Array as="points">
                            <mxPoint x="700" y="345"/>
                        </Array>
                    </mxGeometry>
                </mxCell>
                <mxCell id="27" value="Usuario esta na nossa base" style="rhombus;whiteSpace=wrap;html=1;shadow=1;strokeColor=#00CCCC;" parent="1" vertex="1">
                    <mxGeometry x="660" y="20" width="80" height="80" as="geometry"/>
                </mxCell>
                <mxCell id="39" style="edgeStyle=none;html=1;exitX=0.25;exitY=0;exitDx=0;exitDy=0;entryX=0;entryY=1;entryDx=0;entryDy=0;" parent="1" source="34" target="11" edge="1">
                    <mxGeometry relative="1" as="geometry">
                        <Array as="points">
                            <mxPoint x="380" y="120"/>
                            <mxPoint x="450" y="120"/>
                        </Array>
                    </mxGeometry>
                </mxCell>
                <mxCell id="43" style="edgeStyle=none;html=1;exitX=0.75;exitY=1;exitDx=0;exitDy=0;entryX=0.381;entryY=0.999;entryDx=0;entryDy=0;entryPerimeter=0;" parent="1" source="34" target="40" edge="1">
                    <mxGeometry relative="1" as="geometry">
                        <Array as="points">
                            <mxPoint x="440" y="330"/>
                            <mxPoint x="1006" y="330"/>
                        </Array>
                    </mxGeometry>
                </mxCell>
                <mxCell id="34" value="LOCAL PASSAPORT" style="rounded=1;whiteSpace=wrap;html=1;strokeColor=#2E18F0;" parent="1" vertex="1">
                    <mxGeometry x="350" y="240" width="120" height="60" as="geometry"/>
                </mxCell>
                <mxCell id="37" value="Sim" style="edgeStyle=none;html=1;exitX=0;exitY=0.5;exitDx=0;exitDy=0;entryX=0.5;entryY=0;entryDx=0;entryDy=0;" parent="1" source="35" target="34" edge="1">
                    <mxGeometry relative="1" as="geometry">
                        <Array as="points">
                            <mxPoint x="410" y="170"/>
                        </Array>
                    </mxGeometry>
                </mxCell>
                <mxCell id="38" value="Nao" style="edgeStyle=none;html=1;exitX=1;exitY=0.5;exitDx=0;exitDy=0;entryX=0.5;entryY=0;entryDx=0;entryDy=0;" parent="1" source="35" target="5" edge="1">
                    <mxGeometry relative="1" as="geometry">
                        <Array as="points">
                            <mxPoint x="580" y="170"/>
                        </Array>
                    </mxGeometry>
                </mxCell>
                <mxCell id="35" value="E a primeira" style="rhombus;whiteSpace=wrap;html=1;shadow=1;strokeColor=#00CCCC;" parent="1" vertex="1">
                    <mxGeometry x="470" y="130" width="80" height="80" as="geometry"/>
                </mxCell>
                <mxCell id="42" style="edgeStyle=none;html=1;exitX=0.25;exitY=0;exitDx=0;exitDy=0;entryX=1;entryY=0.75;entryDx=0;entryDy=0;" parent="1" source="40" target="6" edge="1">
                    <mxGeometry relative="1" as="geometry">
                        <mxPoint x="920" y="70" as="targetPoint"/>
                        <Array as="points">
                            <mxPoint x="990" y="75"/>
                        </Array>
                    </mxGeometry>
                </mxCell>
                <mxCell id="44" style="edgeStyle=none;html=1;exitX=0.75;exitY=1;exitDx=0;exitDy=0;entryX=0.25;entryY=1;entryDx=0;entryDy=0;" parent="1" source="40" target="34" edge="1">
                    <mxGeometry relative="1" as="geometry">
                        <Array as="points">
                            <mxPoint x="1050" y="360"/>
                            <mxPoint x="380" y="360"/>
                        </Array>
                    </mxGeometry>
                </mxCell>
                <mxCell id="46" style="edgeStyle=none;html=1;exitX=1;exitY=0.25;exitDx=0;exitDy=0;entryX=0;entryY=0;entryDx=0;entryDy=27.5;entryPerimeter=0;" parent="1" source="40" target="45" edge="1">
                    <mxGeometry relative="1" as="geometry"/>
                </mxCell>
                <mxCell id="40" value="SERVICO" style="rounded=1;whiteSpace=wrap;html=1;shadow=1;strokeColor=#FFFF33;" parent="1" vertex="1">
                    <mxGeometry x="960" y="180" width="120" height="60" as="geometry"/>
                </mxCell>
                <mxCell id="47" style="edgeStyle=none;html=1;exitX=0;exitY=0;exitDx=0;exitDy=52.5;exitPerimeter=0;entryX=1;entryY=0.75;entryDx=0;entryDy=0;" parent="1" source="45" target="40" edge="1">
                    <mxGeometry relative="1" as="geometry"/>
                </mxCell>
                <mxCell id="45" value="DB" style="shape=cylinder3;whiteSpace=wrap;html=1;boundedLbl=1;backgroundOutline=1;size=15;shadow=1;strokeColor=#7F00FF;" parent="1" vertex="1">
                    <mxGeometry x="1170" y="170" width="60" height="80" as="geometry"/>
                </mxCell>
            </root>
        </mxGraphModel>
    </diagram>
</mxfile>